<svg width="21" height="28" viewBox="0 0 21 28" fill="none" xmlns="http://www.w3.org/2000/svg">
  <path d="M21 19.1649C21 19.4352 20.9503 19.788 20.8509 20.2234C20.7514 20.6588 20.647 21.0017 20.5376 21.2519C20.3288 21.7524 19.7223 22.2829 18.718 22.8434C17.7834 23.3539 16.8587 23.6091 15.9439 23.6091C15.6754 23.6091 15.4119 23.5916 15.1534 23.5566C14.8949 23.5215 14.609 23.459 14.2958 23.3689C13.9826 23.2788 13.7489 23.2062 13.5948 23.1512C13.4407 23.0961 13.1648 22.9935 12.767 22.8434C12.3693 22.6933 12.1257 22.6032 12.0362 22.5732C11.0618 22.2228 10.1918 21.8074 9.42614 21.327C8.16335 20.5362 6.85085 19.4552 5.48864 18.0839C4.12642 16.7126 3.05256 15.3914 2.26705 14.1202C1.78977 13.3494 1.37713 12.4736 1.02912 11.4927C0.99929 11.4026 0.909801 11.1574 0.760653 10.757C0.611506 10.3566 0.509588 10.0788 0.454901 9.92369C0.400213 9.76854 0.328125 9.53332 0.238636 9.21802C0.149148 8.90272 0.0870028 8.61495 0.0522017 8.3547C0.0174006 8.09446 0 7.82921 0 7.55895C0 6.63808 0.253551 5.7072 0.760653 4.76631C1.31747 3.75535 1.84446 3.14478 2.34162 2.93458C2.5902 2.82447 2.93075 2.71937 3.36328 2.61928C3.79581 2.51918 4.14631 2.46914 4.41477 2.46914C4.55398 2.46914 4.65838 2.48415 4.72798 2.51418C4.90696 2.57424 5.17045 2.9546 5.51847 3.65526C5.62784 3.84544 5.77699 4.11569 5.96591 4.46602C6.15483 4.81636 6.32884 5.13416 6.48793 5.41943C6.64702 5.7047 6.80114 5.97245 6.95028 6.22269C6.98011 6.26272 7.06712 6.38784 7.21129 6.59804C7.35547 6.80824 7.46236 6.98591 7.53196 7.13105C7.60156 7.27618 7.63636 7.41882 7.63636 7.55895C7.63636 7.75914 7.49467 8.00938 7.21129 8.30966C6.92791 8.60994 6.61967 8.88521 6.28658 9.13544C5.95348 9.38568 5.64524 9.65093 5.36186 9.93119C5.07848 10.2115 4.93679 10.4417 4.93679 10.6218C4.93679 10.7119 4.96165 10.8245 5.01136 10.9597C5.06108 11.0948 5.10334 11.1974 5.13814 11.2675C5.17294 11.3375 5.24254 11.4576 5.34695 11.6278C5.45135 11.798 5.50852 11.8931 5.51847 11.9131C6.27415 13.2844 7.1392 14.4605 8.11364 15.4414C9.08807 16.4223 10.2564 17.2932 11.6186 18.0539C11.6385 18.0639 11.733 18.1214 11.902 18.2265C12.071 18.3316 12.1903 18.4017 12.2599 18.4367C12.3295 18.4718 12.4315 18.5143 12.5657 18.5644C12.6999 18.6144 12.8118 18.6394 12.9013 18.6394C13.0803 18.6394 13.3089 18.4968 13.5874 18.2115C13.8658 17.9263 14.1293 17.616 14.3778 17.2806C14.6264 16.9453 14.8999 16.635 15.1982 16.3498C15.4964 16.0645 15.745 15.9219 15.9439 15.9219C16.0831 15.9219 16.2248 15.9569 16.369 16.027C16.5131 16.097 16.6896 16.2046 16.8984 16.3498C17.1072 16.4949 17.2315 16.5825 17.2713 16.6125C17.5199 16.7627 17.7859 16.9178 18.0692 17.078C18.3526 17.2381 18.6683 17.4133 19.0163 17.6035C19.3643 17.7936 19.6328 17.9438 19.8217 18.0539C20.5178 18.4042 20.8956 18.6695 20.9553 18.8496C20.9851 18.9197 21 19.0248 21 19.1649Z" fill="white" />
</svg>