<svg width="22" height="28" viewBox="0 0 22 28" fill="none" xmlns="http://www.w3.org/2000/svg">
  <path d="M3 11.8021C3 17.2701 7.85086 21.7919 9.99797 23.5255C10.3053 23.7736 10.4607 23.8992 10.69 23.9628C10.8685 24.0124 11.1312 24.0124 11.3098 23.9628C11.5394 23.8991 11.6938 23.7747 12.0023 23.5257C14.1494 21.792 19 17.2706 19 11.8026C19 9.73326 18.1572 7.74846 16.6569 6.28524C15.1566 4.82203 13.1219 4 11.0001 4C8.87839 4 6.84346 4.82215 5.34316 6.28537C3.84286 7.74859 3 9.73276 3 11.8021Z" stroke="white" stroke-width="2" stroke-linecap="round" stroke-linejoin="round" />
  <path d="M8.71432 10.762C8.71432 12.0069 9.73767 13.016 11 13.016C12.2624 13.016 13.2858 12.0069 13.2858 10.762C13.2858 9.51715 12.2624 8.508 11 8.508C9.73767 8.508 8.71432 9.51715 8.71432 10.762Z" stroke="white" stroke-width="2" stroke-linecap="round" stroke-linejoin="round" />
</svg>