<svg width="32" height="32" viewBox="0 0 32 32" fill="none" xmlns="http://www.w3.org/2000/svg">
  <g clip-path="url(#clip0_92_104)">
    <rect width="32" height="32" fill="#27BD60" />
    <path d="M7 16H12M7 16C7 20.9706 11.0294 25 16 25M7 16C7 11.0294 11.0294 7 16 7M12 16H20M12 16C12 20.9706 13.7909 25 16 25M12 16C12 11.0294 13.7909 7 16 7M20 16H25M20 16C20 11.0294 18.2091 7 16 7M20 16C20 20.9706 18.2091 25 16 25M25 16C25 11.0294 20.9706 7 16 7M25 16C25 20.9706 20.9706 25 16 25" stroke="#151517" stroke-linecap="round" stroke-linejoin="round" />
  </g>
  <defs>
    <clipPath id="clip0_92_104">
      <rect width="32" height="32" rx="5" fill="white" />
    </clipPath>
  </defs>
</svg>