<svg width="32" height="32" viewBox="0 0 32 32" fill="none" xmlns="http://www.w3.org/2000/svg">
  <g clip-path="url(#clip0_92_116)">
    <rect width="32" height="32" fill="#27BD60" />
    <path d="M26.9499 13.9401C26.5727 13.7439 26.1742 13.3067 26.4388 11.6537C26.6871 10.103 26.2274 9.78574 25.6007 9.53213C25.564 9.51735 25.5272 9.50241 25.4901 9.4867C25.4463 9.46813 25.4378 9.39543 25.4509 9.14862C25.4694 8.79627 25.5038 8.14032 24.6509 8.02066C24.2334 7.96213 23.9526 8.02766 23.7929 8.22136C23.5783 8.48162 23.6763 8.83474 23.7478 9.0926C23.7655 9.15025 23.7797 9.20898 23.7905 9.26844C23.8 9.3478 23.7776 9.40244 23.726 9.51847C23.6263 9.71996 23.5743 9.94346 23.5742 10.1703C23.5742 10.5182 23.5126 10.638 22.8594 11.1181C22.6764 11.2445 22.4828 11.3534 22.281 11.4432C21.8119 11.6694 21.2802 11.9258 21.1972 12.7205C21.1293 13.371 20.7522 13.8249 20.6281 13.8476C20.6138 13.8289 20.6023 13.8081 20.5942 13.7857C20.506 13.5668 20.3689 13.4199 20.1869 13.3492C19.8098 13.2027 19.3709 13.4304 18.9465 13.6505C18.8906 13.6795 18.8351 13.7082 18.7807 13.7356C18.4318 13.911 18.046 13.9897 17.849 13.9914C17.8901 13.9224 17.9447 13.8489 17.9981 13.7769C18.1647 13.5529 18.4161 13.2142 18.1892 12.8835C17.9558 12.5435 17.686 12.6691 17.4888 12.7607C17.322 12.8433 17.1465 12.9049 16.9659 12.9442C16.5251 13.0387 16.3371 13.2839 16.1998 13.4629C16.0943 13.6004 16.047 13.6568 15.9324 13.6717C15.459 13.7334 15.4786 14.2291 15.4891 14.4955C15.4945 14.6339 15.5028 14.8434 15.4473 14.8855C15.2403 15.0432 15.0234 15.3587 15.0364 15.6785C15.0375 15.7091 15.0315 15.7396 15.0189 15.7672C15.0063 15.7948 14.9874 15.8188 14.9639 15.8371C14.9437 15.8536 14.9199 15.8646 14.8946 15.869C14.8693 15.8735 14.8434 15.8713 14.8191 15.8627C14.7386 15.8341 14.7257 15.8007 14.7257 15.732C14.7225 15.6448 14.7263 15.5576 14.7369 15.4711C14.7437 15.4643 14.7541 15.4546 14.7629 15.4463C14.8845 15.3343 14.9898 15.2043 15.0754 15.0605C15.5 14.3844 15.0811 13.8298 15.063 13.8066C15.0311 13.7652 14.9875 13.7354 14.9386 13.7211C14.5884 13.6188 14.3862 13.9333 14.2238 14.1859C14.0286 14.4894 13.8075 14.8334 13.3232 14.8879C12.6497 14.9636 12.5878 14.8957 12.4943 14.7928C12.3544 14.63 12.1767 14.5078 11.9782 14.4379C11.5384 14.2662 10.7891 14.4025 10.0645 14.5342C9.68621 14.6029 9.11433 14.7069 8.98821 14.6543C8.9863 14.6535 8.98507 14.6528 8.98458 14.6527C8.97968 14.6431 8.93492 14.5339 9.05663 14.189C9.05872 14.183 9.06208 14.1775 9.06648 14.1729C9.07088 14.1684 9.0762 14.1649 9.08205 14.1628C9.08896 14.1601 9.09636 14.1589 9.10374 14.1595C9.11112 14.16 9.1183 14.1623 9.12476 14.166C9.42089 14.3335 9.72123 14.3432 9.99316 14.1939C10.2455 14.0553 10.3773 13.7733 10.3454 13.4395C10.3035 13.0009 9.96299 12.4656 9.39321 12.2911C8.91106 12.1435 8.61851 12.5316 8.33595 12.907C8.00647 13.3448 7.63306 13.8409 6.85248 13.9727C6.59606 14.0117 6.35048 14.1071 6.132 14.2526C5.91351 14.3982 5.7271 14.5905 5.5851 14.8169C5.04579 15.6482 5.00372 16.9545 5.2014 17.8803C5.32046 18.4383 5.23269 18.6483 5.18945 18.7127C5.17294 18.7403 5.14761 18.761 5.11794 18.7711C4.97345 18.762 4.40808 18.754 4.13566 19.1459C3.95811 19.4013 3.95483 19.7434 4.12587 20.1627C4.83866 21.9092 5.32507 22.7145 5.75197 22.8551C5.81532 22.8775 5.88267 22.8849 5.94911 22.8768C6.01555 22.8686 6.07941 22.8451 6.13606 22.8079C6.31968 22.6885 6.41191 22.4151 6.58696 21.8572C6.79757 21.185 7.11643 20.1692 7.6645 20C7.93878 19.9155 8.28457 20.0428 8.69188 20.379C8.95118 20.8022 9.42309 21.4547 9.83236 21.3735C10.1296 21.3146 10.2299 21.0289 10.3031 20.8203C10.3538 20.6759 10.4017 20.5396 10.4852 20.498C10.5996 20.4387 10.7065 20.3648 10.8035 20.278C10.8393 20.2439 10.8791 20.2147 10.9218 20.191C10.955 20.1971 10.9863 20.2113 11.0132 20.2323C11.0524 20.257 11.0879 20.2801 11.1214 20.3018C11.4251 20.4983 11.5807 20.5877 12.0858 20.6478C12.1917 20.6604 12.23 20.7162 12.3156 20.9156C12.3992 21.1104 12.555 21.473 13.0077 21.3898C13.3101 21.3342 13.3931 21.4609 13.6346 21.9088L13.6801 21.9927C14.0446 22.6625 14.6458 23 15.4711 23C15.6472 22.9993 15.8232 22.9855 15.9975 22.9588C16.7501 22.8467 17.0298 22.6513 17.1969 22.5346C17.304 22.4598 17.304 22.4598 17.4161 22.4927C17.7132 22.5797 17.9524 22.4485 18.1446 22.3432C18.3755 22.2166 18.5283 22.1332 18.7991 22.3062C19.2608 22.6012 19.5818 22.4708 19.8398 22.3662C20.0428 22.2838 20.2182 22.2127 20.5101 22.2887C21.0567 22.4309 21.284 22.2471 21.4841 22.0848C21.6591 21.9255 21.8773 21.827 22.1083 21.8031C22.7499 21.711 22.7643 21.1193 22.7737 20.7278C22.7854 20.2513 22.8255 20.1637 23.0418 20.1415C23.4278 20.102 23.4976 20.2037 23.6036 20.3577C23.7053 20.5054 23.8589 20.7287 24.2345 20.7287C24.4056 20.7287 24.926 20.7287 25.1158 20.9554C25.1912 21.0456 25.2166 21.1769 25.1933 21.357C25.1484 21.7039 25.1872 21.9972 25.3085 22.2287C25.3676 22.3401 25.457 22.4307 25.5654 22.4891C25.6738 22.5475 25.7963 22.5711 25.9175 22.5569C26.0387 22.5427 26.1532 22.4913 26.2465 22.4092C26.3397 22.3271 26.4077 22.218 26.4417 22.0957C26.9504 20.2576 26.6708 19.5445 26.4005 18.8549C26.3086 18.6366 26.2335 18.4109 26.176 18.1801C26.1146 17.9133 26.0791 17.7695 26.0023 17.6699C25.8672 17.4948 25.6815 17.5348 25.5705 17.5587C25.4234 17.5938 25.2719 17.604 25.1217 17.589C25.0949 17.5886 25.0686 17.5814 25.045 17.568C25.0214 17.5547 25.0013 17.5355 24.9864 17.5123C24.8346 17.2914 24.8879 16.6834 24.974 16.3225C24.9859 16.2831 24.9862 16.2408 24.9748 16.2011C24.9699 16.1653 24.9411 15.8648 25.2281 15.346C25.4324 14.9764 25.4543 14.5396 25.4704 14.2207C25.4725 14.1773 25.4753 14.1279 25.4782 14.0809C25.595 14.1975 25.6888 14.3772 25.8077 14.6047C25.9383 14.8672 26.0878 15.1188 26.2551 15.3574C26.664 15.9253 27.1997 16.3271 27.5579 16.3349C27.6238 16.3386 27.6896 16.3263 27.7503 16.2991C27.8109 16.2718 27.8646 16.2304 27.9074 16.1779C28.0054 16.053 28.0254 15.857 27.9684 15.5787C27.8628 15.064 27.4771 14.2147 26.9499 13.9401Z" stroke="#151517" />
  </g>
  <defs>
    <clipPath id="clip0_92_116">
      <rect width="32" height="32" rx="5" fill="white" />
    </clipPath>
  </defs>
</svg>