<svg width="32" height="32" viewBox="0 0 32 32" fill="none" xmlns="http://www.w3.org/2000/svg">
  <g clip-path="url(#clip0_92_92)">
    <rect width="32" height="32" fill="#27BD60" />
    <path d="M11.5105 9.34002H10.9546C10.7605 9.34002 10.6031 9.49743 10.6031 9.6916C10.6031 9.88576 10.7605 10.0432 10.9546 10.0432H11.5105C11.7046 10.0432 11.862 9.88576 11.862 9.6916C11.862 9.49743 11.7046 9.34002 11.5105 9.34002Z" fill="#151517" />
    <path d="M20.8409 10.0431H21.3967C21.5909 10.0431 21.7483 9.88572 21.7483 9.69155C21.7483 9.49739 21.5909 9.33998 21.3967 9.33998H20.8409C20.6467 9.33998 20.4893 9.49739 20.4893 9.69155C20.4893 9.88572 20.6467 10.0431 20.8409 10.0431Z" fill="#151517" />
    <path d="M27.9991 13.5313C27.9716 12.7732 27.3205 12.1565 26.5477 12.1565H22.368C21.9873 12.1565 21.6291 12.3049 21.3596 12.5745C21.09 12.8441 20.9416 13.2022 20.9416 13.583C20.9416 13.9359 21.0718 14.2747 21.3079 14.5366C21.6156 14.8789 21.6442 15.4584 21.3712 15.8041C21.3655 15.8109 21.3598 15.8179 21.3542 15.8251C21.065 16.181 20.6222 16.3468 20.1781 16.2813V15.8135C20.1781 15.1006 19.7031 14.4968 19.0531 14.3012V13.6157C19.0531 12.4965 19.9634 11.586 21.0823 11.586C21.5624 11.586 21.9964 11.3859 22.3062 11.0651C22.3187 11.063 22.3325 11.0611 22.3481 11.059C22.7586 11.0074 23.168 11.18 23.4175 11.5094C23.4845 11.5978 23.5884 11.6487 23.6976 11.6487C23.7119 11.6487 23.7263 11.6478 23.7408 11.646C23.8652 11.6306 23.972 11.5502 24.0211 11.4348C24.1488 11.1349 24.1948 10.8039 24.1538 10.4773C24.0419 9.59025 23.314 8.91218 22.4346 8.85142C22.1233 8.44462 21.633 8.18155 21.0822 8.18155H17.4613C16.948 8.18155 16.5305 8.59918 16.5305 9.11248C16.5305 9.36112 16.6273 9.59489 16.8031 9.77077C16.8811 9.84878 16.9706 9.91122 17.0678 9.9565C16.6021 10.4664 16.2416 11.0555 16.0003 11.6922C15.759 11.0555 15.3985 10.4664 14.9328 9.9565C15.03 9.91122 15.1195 9.84878 15.1975 9.77077C15.3734 9.59494 15.4701 9.36116 15.4701 9.11248C15.4701 8.59918 15.0525 8.18155 14.5393 8.18155H10.9184C10.3678 8.18155 9.87764 8.44444 9.56624 8.85105C8.68457 8.90946 7.95393 9.58856 7.84171 10.4776C7.80084 10.8039 7.84673 11.1349 7.97442 11.4348C8.02354 11.5502 8.13032 11.6307 8.25478 11.646C8.26921 11.6478 8.2836 11.6487 8.29795 11.6487C8.40712 11.6487 8.51118 11.5978 8.57812 11.5094C8.82764 11.18 9.23737 11.0076 9.64673 11.0589C9.66548 11.0613 9.68132 11.0637 9.69548 11.0661C10.0052 11.3863 10.4388 11.586 10.9184 11.586C12.0373 11.586 12.9475 12.4965 12.9475 13.6157V14.301C12.2976 14.4964 11.8226 15.1002 11.8226 15.813V16.2813C11.3779 16.3471 10.9346 16.1811 10.6456 15.8248C10.6401 15.8178 10.6346 15.8111 10.6289 15.8043C10.3557 15.4586 10.3843 14.8789 10.6918 14.5369C10.9281 14.2747 11.0583 13.9358 11.0583 13.5829C11.0583 13.2021 10.9099 12.8439 10.6403 12.5744C10.3709 12.3049 10.0127 12.1565 9.63196 12.1565H8.13862C7.94446 12.1565 7.78706 12.3139 7.78706 12.5081C7.78706 12.7022 7.94446 12.8596 8.13862 12.8596H9.63201C9.82499 12.8596 10.0065 12.9349 10.1432 13.0717C10.2799 13.2084 10.3552 13.39 10.3552 13.5829C10.3552 13.7617 10.2893 13.9333 10.1693 14.0664C9.62681 14.6698 9.58818 15.6268 10.0813 16.2452C10.0829 16.2472 10.0848 16.2495 10.0864 16.2515L10.0916 16.2577C10.0933 16.2599 10.095 16.2621 10.0967 16.2642C10.4814 16.7407 11.0421 17.0003 11.6286 17.0003C11.693 17.0003 11.7577 16.9968 11.8226 16.9905V19.034C11.6612 19.028 11.4914 19.0067 11.3236 19.0049C10.7334 19.0049 10.1758 19.2901 9.83179 19.768C9.82935 19.7714 9.82692 19.7748 9.82462 19.7783C9.69018 19.98 9.46485 20.1004 9.22185 20.1004C9.07762 20.1004 8.93812 20.0576 8.81803 19.9762C8.48943 19.7545 8.40796 19.2952 8.63639 18.9525L8.83654 18.6525C8.92954 18.5131 8.91121 18.3274 8.79276 18.2088C8.67426 18.0903 8.48864 18.0718 8.34918 18.1648L7.79873 18.5317C7.67906 18.6113 7.54068 18.6533 7.39856 18.6533C7.15228 18.6533 6.92507 18.5303 6.79087 18.3242C6.5759 17.994 6.6772 17.5411 7.01653 17.3146L7.4046 17.0558C7.54687 16.961 7.60031 16.7775 7.53112 16.6211C7.46193 16.4647 7.29028 16.3808 7.12434 16.4223L6.06642 16.6869C6.00721 16.7015 5.94759 16.709 5.88923 16.709C5.55384 16.709 5.25736 16.4705 5.18428 16.1418C5.0999 15.7629 5.34825 15.3753 5.73778 15.2777L6.85335 14.9988C7.02562 14.9557 7.13873 14.791 7.11703 14.6148C7.09532 14.4386 6.94565 14.3062 6.76814 14.3062H5.42657C5.22853 14.3062 5.04361 14.2277 4.90598 14.0851C4.7685 13.9426 4.69659 13.7549 4.70357 13.5568C4.7175 13.1724 5.0534 12.8597 5.45236 12.8597H6.73242C6.92657 12.8597 7.08398 12.7023 7.08398 12.5081C7.08398 12.3139 6.92657 12.1565 6.73242 12.1565H5.45236C4.6664 12.1565 4.02886 12.7604 4.00092 13.5316C3.98714 13.9225 4.12889 14.2924 4.40011 14.5734C4.55573 14.7346 4.74192 14.8543 4.94615 14.927C4.57289 15.264 4.38393 15.7827 4.49798 16.2945C4.64193 16.9421 5.22703 17.4121 5.88923 17.4121C5.95317 17.4121 6.01753 17.4077 6.08184 17.3989C5.91262 17.8185 5.94121 18.3077 6.2017 18.7079C6.46621 19.114 6.91364 19.3565 7.39856 19.3565C7.53768 19.3565 7.67484 19.3362 7.80646 19.2967C7.77979 19.7848 7.99804 20.2712 8.42437 20.5588C8.66081 20.7189 8.93657 20.8035 9.22185 20.8035C9.69806 20.8035 10.14 20.5684 10.4056 20.1743C10.6181 19.8822 10.9608 19.708 11.3236 19.708C11.4919 19.7131 11.6624 19.7324 11.8226 19.738V19.8063C11.8226 19.9098 11.8298 20.0122 11.8425 20.1132C11.0436 20.3265 10.4633 21.0523 10.4633 21.9139V23.1294C10.4633 23.6635 10.8438 24.1152 11.3422 24.2114V24.4659L9.95142 24.8133C9.70199 24.5181 9.33342 24.343 8.93718 24.343C8.81489 24.343 8.69526 24.3597 8.58056 24.3915L7.56079 22.6894C7.6836 22.529 7.75748 22.3291 7.75748 22.1119C7.75748 21.5866 7.33012 21.1592 6.80479 21.1592C6.27946 21.1592 5.85211 21.5866 5.85211 22.1119C5.85211 22.6373 6.27946 23.0647 6.80479 23.0647C6.85701 23.0647 6.90792 23.0593 6.95789 23.0512L7.97751 24.7531C7.73971 25.0018 7.60875 25.3267 7.60875 25.6715C7.60875 26.0259 7.74674 26.3594 7.99762 26.611C8.2484 26.8618 8.58206 26.9999 8.93709 26.9999C9.08849 26.9999 9.23732 26.9743 9.37996 26.9237C9.48032 26.8879 9.57548 26.8406 9.66403 26.7825C9.69815 26.7779 9.73195 26.7714 9.76518 26.763L12.4886 26.083C12.9007 25.9806 13.1884 25.6122 13.1884 25.1873V24.212C13.4009 24.1728 13.5966 24.0711 13.7529 23.9148C13.9559 23.7111 14.0677 23.4407 14.0677 23.1534V22.2223C14.1423 22.2289 14.2176 22.2326 14.2934 22.2326C14.4112 22.2327 14.5261 22.2478 14.6359 22.2763L13.6388 25.5804C13.6074 25.6845 13.5915 25.792 13.5915 25.8998C13.5915 26.5064 14.0856 27 14.693 27C14.9817 27 15.2548 26.889 15.4619 26.6873L16.0003 26.1625L16.5388 26.6876C16.7421 26.8869 17.0234 27.0008 17.3076 27C17.6594 27 17.9816 26.8379 18.1915 26.5553C18.4014 26.2727 18.4634 25.9173 18.3618 25.5803L17.3647 22.2762C17.4742 22.2478 17.5888 22.2327 17.7063 22.2326C17.8195 22.2325 17.9314 22.2246 18.0417 22.2101V23.1534C18.0417 23.4406 18.1535 23.7111 18.3569 23.9153C18.5129 24.0712 18.7085 24.1728 18.921 24.212V25.1873C18.921 25.6123 19.2088 25.9806 19.6205 26.0829L22.2355 26.7361C22.464 26.9068 22.7425 27 23.0289 27C23.384 27 23.7176 26.8619 23.9688 26.6107C24.1352 26.4438 24.2516 26.2406 24.3112 26.0191C24.7271 25.9928 25.1145 25.8188 25.4117 25.5216C25.7353 25.198 25.9135 24.7679 25.9135 24.3107C25.9135 23.8529 25.7352 23.4227 25.4119 23.1C25.1732 22.8608 24.876 22.7013 24.5525 22.6342V22.2292H24.7863C24.9805 22.2292 25.1379 22.0718 25.1379 21.8777C25.1379 21.6835 24.9805 21.5261 24.7863 21.5261H24.5525V21.2744C24.5525 21.0803 24.3951 20.9229 24.2009 20.9229C24.0067 20.9229 23.8493 21.0803 23.8493 21.2744V21.5261H23.6155C23.4213 21.5261 23.2639 21.6835 23.2639 21.8777C23.2639 22.0718 23.4213 22.2292 23.6155 22.2292H23.8493V22.6344C23.0732 22.797 22.4885 23.4868 22.4885 24.3108C22.4885 24.3595 22.4911 24.408 22.4952 24.4562C22.3234 24.532 22.1682 24.6436 22.0414 24.7845L20.7673 24.4661V24.2117C21.2658 24.1156 21.6466 23.6638 21.6466 23.1296V21.9141C21.6466 21.0158 21.0081 20.2639 20.1612 20.0883C20.172 19.9949 20.1781 19.9005 20.1781 19.805V19.7381C20.3381 19.7326 20.5081 19.7132 20.6764 19.7081C21.0392 19.7081 21.3819 19.8823 21.5944 20.1745C21.86 20.5686 22.3019 20.8036 22.7782 20.8036C23.0635 20.8036 23.3392 20.719 23.5752 20.5593C24.0018 20.2715 24.2202 19.785 24.1935 19.2968C24.3252 19.3363 24.4623 19.3566 24.6015 19.3566C25.0864 19.3566 25.5339 19.1142 25.7984 18.708C26.0589 18.3079 26.0875 17.8187 25.9183 17.3991C25.9825 17.4079 26.0469 17.4123 26.1109 17.4123C26.773 17.4123 27.3581 16.9423 27.5021 16.2948C27.6161 15.783 27.4271 15.2642 27.0539 14.9272C27.2581 14.8544 27.4444 14.7348 27.5999 14.5736C27.8711 14.2924 28.0129 13.9225 27.9991 13.5313ZM23.4563 10.5651C23.4586 10.5832 23.4604 10.6012 23.4618 10.6193C23.2353 10.4817 22.9808 10.3933 22.7161 10.361C22.7605 10.2094 22.7848 10.0493 22.7848 9.88361C22.7848 9.8034 22.7788 9.7246 22.768 9.64735C23.1326 9.80687 23.4038 10.1486 23.4563 10.5651ZM17.9847 10.0431H19.0829C19.2771 10.0431 19.4345 9.88572 19.4345 9.69155C19.4345 9.49739 19.2771 9.33998 19.0829 9.33998L17.4614 9.33979C17.4002 9.33979 17.343 9.31625 17.3003 9.27355C17.2573 9.23052 17.2336 9.17328 17.2336 9.11243C17.2336 8.9868 17.3358 8.88461 17.4614 8.88461H21.0823C21.6333 8.88461 22.0816 9.33271 22.0816 9.88351C22.0816 10.4346 21.6333 10.8829 21.0823 10.8829C19.5757 10.8829 18.3501 12.1088 18.3501 13.6157V14.2342H16.3519V13.6157C16.3519 12.2404 16.9454 10.9455 17.9847 10.0431ZM8.53392 10.6193C8.53532 10.6013 8.53715 10.5833 8.5394 10.5654C8.59223 10.1467 8.86574 9.80359 9.2331 9.645C9.22209 9.72301 9.21604 9.8026 9.21604 9.88361C9.21604 10.0491 9.24023 10.209 9.28448 10.3604C9.01809 10.3921 8.76187 10.4808 8.53392 10.6193ZM10.9184 10.8829C10.3674 10.8829 9.91912 10.4346 9.91912 9.88356C9.91912 9.33276 10.3674 8.88466 10.9184 8.88466H14.5394C14.665 8.88466 14.7672 8.98685 14.7672 9.11248C14.7672 9.17337 14.7435 9.23056 14.7005 9.27355C14.6577 9.31625 14.6005 9.33979 14.5394 9.33979L12.9179 9.33998C12.7237 9.33998 12.5663 9.49739 12.5663 9.69155C12.5663 9.88572 12.7237 10.0431 12.9179 10.0431H14.016C15.0553 10.9455 15.6488 12.2404 15.6488 13.6157V14.2343H13.6506V13.6157C13.6506 12.1089 12.425 10.8829 10.9184 10.8829ZM6.55518 22.112C6.55518 21.9744 6.66717 21.8624 6.80475 21.8624C6.94232 21.8624 7.05431 21.9744 7.05431 22.112C7.05431 22.2496 6.94232 22.3616 6.80475 22.3616C6.66717 22.3616 6.55518 22.2496 6.55518 22.112ZM12.3186 25.4007L9.59399 26.0811C9.57651 26.0855 9.55879 26.0877 9.5399 26.0877C9.46115 26.0877 9.3847 26.1142 9.32278 26.1628C9.26882 26.2052 9.20864 26.2383 9.14437 26.2612C9.07795 26.2848 9.0082 26.2967 8.93709 26.2967C8.76984 26.2967 8.61276 26.2318 8.4951 26.1141C8.37693 25.9956 8.31182 25.8384 8.31182 25.6715C8.31182 25.5045 8.37693 25.3473 8.49478 25.2291C8.61276 25.1111 8.76984 25.0462 8.93709 25.0462C9.16889 25.0462 9.38057 25.1735 9.48965 25.3786C9.56545 25.5212 9.72867 25.5937 9.88523 25.5546L11.7789 25.0816C11.9354 25.0426 12.0452 24.9019 12.0452 24.7406V24.1042C12.124 24.0621 12.1984 24.0108 12.2658 23.9492C12.3319 24.0095 12.4059 24.0609 12.4854 24.1035V25.1873C12.4854 25.2885 12.417 25.3762 12.3186 25.4007ZM13.3647 23.1534C13.3647 23.2533 13.3257 23.3474 13.2554 23.418C13.1848 23.4886 13.0908 23.5274 12.9906 23.5274C12.7847 23.5274 12.6171 23.3596 12.6171 23.1533C12.6171 22.9592 12.4597 22.8017 12.2655 22.8017C12.0714 22.8017 11.914 22.9592 11.914 23.1533C11.914 23.2544 11.8743 23.3491 11.8022 23.42C11.7299 23.491 11.6352 23.5293 11.5329 23.5274C11.3308 23.5236 11.1664 23.3451 11.1664 23.1294V21.9139C11.1664 21.3749 11.5308 20.9212 12.0315 20.7905C12.1544 21.0651 12.3291 21.3168 12.5519 21.5331C12.788 21.7621 13.064 21.9387 13.3647 22.0572V23.1534ZM17.6271 26.136C17.5513 26.2382 17.4348 26.2968 17.3076 26.2968C17.2053 26.2971 17.1029 26.2559 17.0295 26.1838L16.2458 25.4198C16.1093 25.2867 15.8915 25.2867 15.755 25.4198L14.9715 26.1836C14.8965 26.2566 14.7976 26.2968 14.6931 26.2968C14.4734 26.2968 14.2947 26.1188 14.2947 25.8998C14.2947 25.8607 14.3005 25.8216 14.312 25.7834L15.2609 22.6388C15.426 22.8069 15.549 23.0185 15.609 23.26C15.6538 23.4405 15.8147 23.5666 16.0004 23.5666C16.1858 23.5666 16.3467 23.4406 16.3917 23.26C16.4517 23.0185 16.5747 22.8068 16.7397 22.6387L17.6887 25.7833C17.7255 25.9052 17.7031 26.0338 17.6271 26.136ZM17.7059 21.5294C17.0054 21.5298 16.374 21.8808 16.0004 22.435C15.6265 21.8808 14.9948 21.5298 14.2939 21.5294C13.3024 21.529 12.5257 20.7721 12.5257 19.8063V15.813C12.5257 15.3302 12.9185 14.9374 13.4013 14.9374H18.5991C19.0821 14.9374 19.4751 15.3304 19.4751 15.8135V19.8049C19.4751 20.7711 18.6979 21.5286 17.7059 21.5294ZM24.2008 23.301C24.4706 23.301 24.724 23.406 24.9147 23.5972C25.1054 23.7875 25.2104 24.0409 25.2104 24.3107C25.2104 24.5802 25.1053 24.8336 24.9145 25.0245C24.7496 25.1894 24.5374 25.2898 24.3085 25.3139C24.248 25.0963 24.1326 24.8965 23.9684 24.7319C23.7567 24.5203 23.4859 24.3892 23.1931 24.3534C23.1925 24.3392 23.1916 24.325 23.1916 24.3107C23.1916 23.754 23.6443 23.301 24.2008 23.301ZM22.099 25.5236C22.2511 25.5616 22.4099 25.4944 22.4885 25.3586C22.6001 25.1659 22.8072 25.0461 23.0289 25.0461C23.1962 25.0461 23.3533 25.1111 23.4709 25.2287C23.5891 25.3473 23.6542 25.5045 23.6542 25.6715C23.6542 25.8384 23.5891 25.9956 23.4713 26.1138C23.3533 26.2318 23.1962 26.2968 23.0289 26.2968C22.8784 26.2968 22.7382 26.2449 22.6235 26.1466C22.582 26.111 22.5329 26.0857 22.4799 26.0724L19.7905 25.4006C19.6925 25.3763 19.6241 25.2885 19.6241 25.1873V24.1036C19.7037 24.0611 19.7778 24.0096 19.8439 23.9492C19.9113 24.0108 19.9855 24.0621 20.0642 24.1041V24.7405C20.0642 24.9018 20.1741 25.0425 20.3305 25.0816L22.099 25.5236ZM20.9436 21.914V23.1295C20.9436 23.3451 20.7789 23.5237 20.577 23.5275C20.4759 23.5287 20.3798 23.4912 20.3077 23.4203C20.2356 23.3494 20.1959 23.2546 20.1959 23.1534C20.1959 22.9592 20.0385 22.8018 19.8443 22.8018C19.6502 22.8018 19.4928 22.9592 19.4928 23.1534C19.4928 23.3596 19.325 23.5274 19.1188 23.5274C19.0186 23.5274 18.9246 23.4886 18.8545 23.4185C18.7837 23.3474 18.7447 23.2533 18.7447 23.1534V22.0108C19.0033 21.8942 19.2413 21.7336 19.4486 21.5324C19.6769 21.3107 19.855 21.052 19.9783 20.7693C20.5256 20.8629 20.9436 21.3404 20.9436 21.914ZM27.0941 14.0851C26.9564 14.2277 26.7715 14.3062 26.5735 14.3062H25.232C25.0544 14.3062 24.9047 14.4386 24.8831 14.6148C24.8614 14.791 24.9744 14.9557 25.1467 14.9988L26.2621 15.2777C26.6518 15.3753 26.9002 15.7629 26.8158 16.1419C26.7427 16.4705 26.4463 16.709 26.1109 16.709C26.0525 16.709 25.9929 16.7016 25.9346 16.6872L24.8757 16.4223C24.7099 16.3808 24.5382 16.4648 24.469 16.6211C24.3998 16.7775 24.4531 16.9611 24.5954 17.0559L24.9834 17.3146C25.3229 17.5411 25.4241 17.994 25.2093 18.3241C25.075 18.5303 24.8478 18.6534 24.6015 18.6534C24.4594 18.6534 24.3211 18.6113 24.2017 18.5319L23.651 18.1649C23.5114 18.0718 23.3257 18.0904 23.2074 18.2089C23.0889 18.3274 23.0706 18.5131 23.1636 18.6525L23.3636 18.9523C23.5921 19.2953 23.5107 19.7546 23.1816 19.9766C23.0619 20.0576 22.9224 20.1004 22.7782 20.1004C22.5352 20.1004 22.3098 19.98 22.1754 19.7784C22.173 19.7748 22.1706 19.7714 22.1682 19.768C21.8242 19.2902 21.2666 19.0049 20.6764 19.0049C20.5086 19.0068 20.3393 19.028 20.1781 19.034V16.9907C20.8327 17.0544 21.4762 16.7928 21.9032 16.2644C21.9052 16.262 21.9068 16.2599 21.9087 16.2574L21.9134 16.2518C21.9152 16.2496 21.917 16.2474 21.9187 16.2452C22.4118 15.6269 22.3732 14.6698 21.8304 14.0661C21.7107 13.9333 21.6448 13.7617 21.6448 13.5829C21.6448 13.39 21.72 13.2084 21.8567 13.0717C21.9935 12.9349 22.1751 12.8596 22.368 12.8596H26.5477C26.9466 12.8596 27.2826 13.1724 27.2965 13.5564C27.3035 13.7549 27.2316 13.9426 27.0941 14.0851Z" fill="#151517" />
    <path d="M19.0061 19.536C19.0061 19.3418 18.8487 19.1844 18.6545 19.1844C18.4604 19.1844 18.3029 19.3418 18.3029 19.536V19.8051C18.3029 20.1147 18.0401 20.3574 17.7049 20.3577C17.0956 20.3577 16.5111 20.5248 16.0001 20.8432C15.489 20.5248 14.9043 20.3577 14.2947 20.3577C13.9544 20.3574 13.6977 20.1204 13.6977 19.8065V16.1095H18.3029V18.1298C18.3029 18.324 18.4603 18.4814 18.6545 18.4814C18.8487 18.4814 19.0061 18.324 19.0061 18.1298V15.8137C19.0061 15.5891 18.8236 15.4063 18.5992 15.4063H13.401C13.1769 15.4063 12.9947 15.5889 12.9947 15.8132V19.8065C12.9947 20.5092 13.5655 21.0602 14.2945 21.0609C14.838 21.0609 15.3558 21.2303 15.792 21.5509C15.8539 21.5964 15.927 21.6191 16.0002 21.6191C16.0733 21.6191 16.1464 21.5963 16.2083 21.5509C16.6445 21.2303 17.1621 21.0609 17.7052 21.0609C18.4347 21.0602 19.0061 20.5086 19.0061 19.8051V19.536H19.0061Z" fill="#151517" />
    <path d="M13.272 7.71297H18.7287C18.9228 7.71297 19.0802 7.55555 19.0802 7.36139C19.0802 7.16723 18.9229 7.00981 18.7287 7.00981H18.6168L18.7785 6.33675C18.91 5.78923 18.7854 5.22164 18.4369 4.7794C18.0883 4.33721 17.5655 4.08361 17.0024 4.08361H16.3519V3.35158C16.3519 3.15741 16.1946 3 16.0004 3C15.8062 3 15.6488 3.15741 15.6488 3.35158V4.08366H14.9983C14.4352 4.08366 13.9124 4.33726 13.5639 4.7795C13.2153 5.22169 13.0908 5.78932 13.2223 6.33685L13.3839 7.00991H13.272C13.0779 7.00991 12.9205 7.16732 12.9205 7.36148C12.9205 7.55565 13.0779 7.71297 13.272 7.71297ZM16.5898 4.78676L16.2316 7.00986H15.7691L15.411 4.78676H16.5898ZM17.8847 5.21475C18.0991 5.48673 18.1757 5.83587 18.0948 6.17259L17.8937 7.00986H16.9438L17.2956 4.82563C17.5263 4.8875 17.7325 5.02171 17.8847 5.21475ZM13.9059 6.17259C13.8251 5.83587 13.9017 5.48673 14.116 5.21475C14.2682 5.02171 14.4745 4.8875 14.7051 4.82563L15.057 7.00986H14.107L13.9059 6.17259Z" fill="#151517" />
  </g>
  <defs>
    <clipPath id="clip0_92_92">
      <rect width="32" height="32" rx="5" fill="white" />
    </clipPath>
  </defs>
</svg>