<svg width="1200" height="560" viewBox="0 0 1200 560" fill="none" xmlns="http://www.w3.org/2000/svg">
<g clip-path="url(#clip0_98_73)">
<rect width="1200" height="580" fill="url(#paint0_radial_98_73)"/>
<rect x="840" y="-120" width="280" height="241.25" rx="12.5" fill="white" fill-opacity="0.07"/>
<rect x="840" y="405" width="280" height="250" rx="18.75" fill="white" fill-opacity="0.07"/>
<path d="M840 155C840 148.096 845.596 142.5 852.5 142.5H1107.5C1114.4 142.5 1120 148.096 1120 155V380C1120 386.904 1114.4 392.5 1107.5 392.5H852.5C845.596 392.5 840 386.904 840 380V155Z" fill="white" fill-opacity="0.07"/>
<path d="M80 -21.25C80 -31.6053 88.3947 -40 98.75 -40H341.25C351.605 -40 360 -31.6053 360 -21.25V191.25C360 201.605 351.605 210 341.25 210H98.75C88.3947 210 80 201.605 80 191.25V-21.25Z" fill="white" fill-opacity="0.07"/>
<rect x="80" y="222.5" width="280" height="250" rx="18.75" fill="white" fill-opacity="0.07"/>
<rect x="80" y="485" width="280" height="250" rx="18.75" fill="white" fill-opacity="0.07"/>
<rect width="1200" height="560" fill="url(#paint1_linear_98_73)"/>
</g>
<defs>
<radialGradient id="paint0_radial_98_73" cx="0" cy="0" r="1" gradientUnits="userSpaceOnUse" gradientTransform="translate(600 -2.115e-06) rotate(90) scale(580 1585.9)">
<stop stop-color="#A4EEBE"/>
<stop offset="0.960382" stop-color="#27BD60"/>
</radialGradient>
<linearGradient id="paint1_linear_98_73" x1="618.405" y1="142.8" x2="664.97" y2="655.778" gradientUnits="userSpaceOnUse">
<stop offset="0.274038" stop-color="#27BD60" stop-opacity="0"/>
<stop offset="0.807663" stop-color="#27BD60" stop-opacity="0.8"/>
</linearGradient>
<clipPath id="clip0_98_73">
<rect width="1200" height="560" fill="white"/>
</clipPath>
</defs>
</svg>
