<svg width="59" height="56" viewBox="0 0 59 56" fill="none" xmlns="http://www.w3.org/2000/svg">
<g clip-path="url(#clip0_92_443)">
<mask id="mask0_92_443" style="mask-type:luminance" maskUnits="userSpaceOnUse" x="0" y="0" width="59" height="56">
<path d="M0 0H58.4348V55.9482H0V0Z" fill="white"/>
</mask>
<g mask="url(#mask0_92_443)">
<path d="M32.8954 10.0645L46.8416 8.41771C46.8696 7.97951 46.8876 7.65538 46.8976 7.48136L46.9597 6.34681L45.8411 6.05268C41.099 4.81213 39.4983 1.04846 39.4402 0.894393L39.0861 0H20.3198H19.3534L18.9972 0.888397C18.9312 1.04846 17.3305 4.81213 12.6044 6.05268L11.4859 6.34681L11.5499 7.48136C11.5499 7.65337 11.5759 7.97148 11.6019 8.40176L25.6922 10.0645V11.5171L12.0482 14.8345C12.4123 19.4246 12.9546 24.779 13.5988 26.7278C15.7778 33.3207 20.802 38.8372 28.5174 43.1351L29.2178 43.5233L29.9181 43.1351C37.6395 38.8452 42.6597 33.3308 44.8366 26.7278C45.483 24.773 46.0252 19.3966 46.3893 14.7985L32.8954 11.5171V10.0645ZM25.7322 7.49335L29.3117 5.21631L32.8954 7.50729V8.66984H25.7342L25.7322 7.49335ZM31.4627 10.0945V11.5251H27.1428V10.0925L31.4627 10.0945ZM25.6422 13.2679H31.0445L25.318 16.5594L25.6422 13.2679ZM35.1284 36.4782H28.2933L34.7542 32.7265L35.1284 36.4782ZM34.362 28.7147L23.4912 34.9715L23.9654 30.1694L33.9378 24.4108L34.362 28.7147ZM33.1334 16.2612L33.5336 20.401L24.4176 25.6714L24.8758 21.0413L33.1334 16.2612Z" fill="white"/>
<path d="M56.0269 48.2024V55.2021H54.1371V48.2024H51.7873V46.5239H58.3767V48.2024H56.0269Z" fill="white"/>
<path d="M48.1899 55.3513C47.6014 55.3513 47.071 55.2601 46.5985 55.0778C46.126 54.8871 45.7241 54.6095 45.3925 54.2448C45.061 53.8718 44.8041 53.4118 44.6216 52.8647C44.4393 52.3094 44.3481 51.6629 44.3481 50.9252C44.3481 50.1958 44.4393 49.5493 44.6216 48.9857C44.8041 48.4138 45.061 47.9372 45.3925 47.5559C45.7241 47.1663 46.126 46.8721 46.5985 46.6731C47.071 46.4742 47.6014 46.3748 48.1899 46.3748C48.994 46.3748 49.657 46.5406 50.1791 46.8721C50.7013 47.1953 51.1199 47.7093 51.4349 48.4138L49.8062 49.2592C49.6902 48.8945 49.5078 48.6044 49.2592 48.3889C49.0188 48.1651 48.6623 48.0532 48.1899 48.0532C47.6346 48.0532 47.187 48.2355 46.8471 48.6003C46.5157 48.9567 46.3498 49.4788 46.3498 50.1668V51.5593C46.3498 52.2473 46.5157 52.7735 46.8471 53.1383C47.187 53.4947 47.6346 53.6729 48.1899 53.6729C48.6541 53.6729 49.0229 53.5485 49.2964 53.2999C49.5783 53.043 49.7855 52.7362 49.9181 52.3798L51.4598 53.2751C51.1365 53.9382 50.7097 54.452 50.1791 54.8167C49.657 55.1731 48.994 55.3513 48.1899 55.3513Z" fill="white"/>
<path d="M39.6624 55.3513C39.0905 55.3513 38.5683 55.2561 38.0958 55.0653C37.6234 54.8747 37.2214 54.5929 36.8899 54.2199C36.5583 53.8387 36.3013 53.3703 36.119 52.815C35.9366 52.2513 35.8455 51.6008 35.8455 50.863C35.8455 50.1254 35.9366 49.4788 36.119 48.9235C36.3013 48.3598 36.5583 47.8916 36.8899 47.5186C37.2214 47.1373 37.6234 46.8514 38.0958 46.6607C38.5683 46.4701 39.0905 46.3748 39.6624 46.3748C40.2343 46.3748 40.7565 46.4701 41.2289 46.6607C41.7014 46.8514 42.1034 47.1373 42.4349 47.5186C42.7665 47.8916 43.0234 48.3598 43.2057 48.9235C43.3881 49.4788 43.4793 50.1254 43.4793 50.863C43.4793 51.6008 43.3881 52.2513 43.2057 52.815C43.0234 53.3703 42.7665 53.8387 42.4349 54.2199C42.1034 54.5929 41.7014 54.8747 41.2289 55.0653C40.7565 55.2561 40.2343 55.3513 39.6624 55.3513ZM39.6624 53.6729C40.2343 53.6729 40.6777 53.4864 40.9927 53.1134C41.3159 52.7404 41.4776 52.2058 41.4776 51.5095V50.2165C41.4776 49.5203 41.3159 48.9857 40.9927 48.6127C40.6777 48.2397 40.2343 48.0532 39.6624 48.0532C39.0905 48.0532 38.6429 48.2397 38.3196 48.6127C38.0046 48.9857 37.8472 49.5203 37.8472 50.2165V51.5095C37.8472 52.2058 38.0046 52.7404 38.3196 53.1134C38.6429 53.4864 39.0905 53.6729 39.6624 53.6729Z" fill="white"/>
<path d="M27.7386 46.5239H34.6389V55.2021H32.7491V48.2024H29.6284V55.2021H27.7386V46.5239Z" fill="white"/>
<path d="M19.9534 55.2021V46.5239H24.0562C24.4623 46.5239 24.8271 46.5944 25.1504 46.7353C25.4736 46.8679 25.7471 47.0544 25.9709 47.2948C26.203 47.5352 26.3812 47.8294 26.5056 48.1775C26.6298 48.5173 26.6921 48.8904 26.6921 49.2965C26.6921 49.7109 26.6298 50.088 26.5056 50.4279C26.3812 50.7678 26.203 51.0578 25.9709 51.2982C25.7471 51.5385 25.4736 51.7292 25.1504 51.8701C24.8271 52.0027 24.4623 52.069 24.0562 52.069H21.8432V55.2021H19.9534ZM21.8432 50.4279H23.8325C24.1142 50.4279 24.3338 50.3574 24.4914 50.2165C24.6571 50.0673 24.74 49.8518 24.74 49.57V49.0229C24.74 48.7412 24.6571 48.5298 24.4914 48.3889C24.3338 48.2397 24.1142 48.1651 23.8325 48.1651H21.8432V50.4279Z" fill="white"/>
<path d="M14.9313 55.3513C14.3593 55.3513 13.8372 55.2561 13.3647 55.0653C12.8923 54.8747 12.4903 54.5929 12.1587 54.2199C11.8272 53.8387 11.5702 53.3703 11.3879 52.815C11.2056 52.2513 11.1144 51.6008 11.1144 50.863C11.1144 50.1254 11.2056 49.4788 11.3879 48.9235C11.5702 48.3598 11.8272 47.8916 12.1587 47.5186C12.4903 47.1373 12.8923 46.8514 13.3647 46.6607C13.8372 46.4701 14.3593 46.3748 14.9313 46.3748C15.5032 46.3748 16.0254 46.4701 16.4978 46.6607C16.9703 46.8514 17.3723 47.1373 17.7038 47.5186C18.0354 47.8916 18.2924 48.3598 18.4747 48.9235C18.657 49.4788 18.7482 50.1254 18.7482 50.863C18.7482 51.6008 18.657 52.2513 18.4747 52.815C18.2924 53.3703 18.0354 53.8387 17.7038 54.2199C17.3723 54.5929 16.9703 54.8747 16.4978 55.0653C16.0254 55.2561 15.5032 55.3513 14.9313 55.3513ZM14.9313 53.6729C15.5032 53.6729 15.9466 53.4864 16.2616 53.1134C16.5848 52.7404 16.7465 52.2058 16.7465 51.5095V50.2165C16.7465 49.5203 16.5848 48.9857 16.2616 48.6127C15.9466 48.2397 15.5032 48.0532 14.9313 48.0532C14.3593 48.0532 13.9118 48.2397 13.5885 48.6127C13.2735 48.9857 13.1161 49.5203 13.1161 50.2165V51.5095C13.1161 52.2058 13.2735 52.7404 13.5885 53.1134C13.9118 53.4864 14.3593 53.6729 14.9313 53.6729Z" fill="white"/>
<path d="M4.28548 54.6304H3.77574C3.22868 54.6304 2.72722 54.5351 2.27135 54.3444C1.81548 54.1538 1.42176 53.8927 1.09022 53.5612C0.766967 53.2213 0.514163 52.8234 0.331813 52.3676C0.149464 51.9117 0.0582886 51.4186 0.0582886 50.8881C0.0582886 50.3576 0.145319 49.8644 0.31938 49.4086C0.50173 48.9527 0.754531 48.5548 1.07779 48.215C1.40104 47.8752 1.79061 47.6099 2.24649 47.4193C2.70236 47.2204 3.21211 47.1209 3.77574 47.1209H4.28548V46.002H6.20015V47.1209H6.70993C7.27352 47.1209 7.7833 47.2204 8.23922 47.4193C8.69507 47.6099 9.08463 47.8752 9.40791 48.215C9.73113 48.5548 9.97972 48.9527 10.1538 49.4086C10.3362 49.8644 10.4274 50.3576 10.4274 50.8881C10.4274 51.4186 10.3362 51.9117 10.1538 52.3676C9.97144 52.8234 9.71457 53.2213 9.38302 53.5612C9.05974 53.8927 8.67017 54.1538 8.21432 54.3444C7.75841 54.5351 7.25696 54.6304 6.70993 54.6304H6.20015V55.7494H4.28548V54.6304ZM4.32278 53.0763V48.675H3.77574C3.46077 48.675 3.19139 48.7248 2.9676 48.8242C2.7438 48.9154 2.56146 49.0438 2.42054 49.2097C2.27964 49.3671 2.17188 49.5578 2.09729 49.7815C2.03098 49.9971 1.99783 50.2333 1.99783 50.4902V51.2611C1.99783 51.7832 2.14287 52.2184 2.43298 52.5665C2.73137 52.9064 3.17895 53.0763 3.77574 53.0763H4.32278ZM6.70993 53.0763C7.3067 53.0763 7.75013 52.9064 8.04023 52.5665C8.33868 52.2184 8.48787 51.7832 8.48787 51.2611V50.4902C8.48787 50.2333 8.45056 49.9971 8.37593 49.7815C8.30964 49.5578 8.20598 49.3671 8.06513 49.2097C7.92422 49.0438 7.73771 48.9154 7.50562 48.8242C7.28186 48.7248 7.01659 48.675 6.70993 48.675H6.16283V53.0763H6.70993Z" fill="white"/>
</g>
</g>
<defs>
<clipPath id="clip0_92_443">
<rect width="58.4348" height="56" fill="white"/>
</clipPath>
</defs>
</svg>
