<svg width="64" height="64" viewBox="0 0 64 64" fill="none" xmlns="http://www.w3.org/2000/svg">
<g clip-path="url(#clip0_92_426)">
<mask id="mask0_92_426" style="mask-type:luminance" maskUnits="userSpaceOnUse" x="0" y="0" width="64" height="64">
<path d="M64 0H0V64H64V0Z" fill="white"/>
</mask>
<g mask="url(#mask0_92_426)">
<path d="M39.7031 41.8054C51.9901 43.0601 62.7031 47.2314 64.1383 51.8888C65.2957 55.6341 59.0457 60.3286 48.7448 61.0555C55.2402 59.0462 58.5966 47.5647 39.7031 41.8054Z" fill="#FB5729"/>
<path d="M60.9717 16.1666V17.5555H50.4809V1.74072H60.7633V3.12961H52.0133V8.7685H59.8142V10.1574H52.0133V16.1759L60.9717 16.1666Z" fill="#FB5729"/>
<path d="M26.7784 37.7917V39.1806H16.2969V23.3704H26.57V24.7593H17.8246V30.3936H25.6164V31.7825H17.8246V37.8009L26.7784 37.7917Z" fill="#FB5729"/>
<path d="M1.0191 15.9351L1.85706 14.7222C3.24055 15.8541 4.9819 16.4564 6.7691 16.4213C8.85706 16.4213 10.834 15.375 10.834 13.4907C10.834 11.6064 8.75058 10.7685 6.57465 10.0463C4.12095 9.23604 1.48207 8.06939 1.48207 5.41661C1.48207 2.9305 3.88947 1.46291 6.57465 1.46291C8.3998 1.41859 10.189 1.97486 11.6673 3.04624L10.9311 4.20828C9.68809 3.33273 8.20151 2.86959 6.68114 2.8842C4.88947 2.8842 2.97743 3.69439 2.97743 5.34716C2.97743 7.27772 5.15336 7.97679 7.1441 8.65272C9.92187 9.57861 12.2784 10.7453 12.2784 13.4213C12.2784 16.1991 9.82463 17.8425 6.75521 17.8425C4.68452 17.8607 2.6666 17.1896 1.0191 15.9351Z" fill="#FB5729"/>
<path d="M34.3142 1.74072H44.4207V3.12961H35.8513V9.14813H43.1476V10.537H35.8513V17.5648H34.3142V1.74072Z" fill="#FB5729"/>
<path d="M12.8235 24.7639H7.30961V39.1898H5.77257V24.7639H0.258682V23.375H12.8235V24.7639Z" fill="#FB5729"/>
<path d="M30.2413 31.2545C30.2413 26.5786 33.57 23.0879 38.2691 23.0879C39.3893 23.0664 40.5012 23.286 41.5292 23.7318C42.5572 24.1775 43.4773 24.8389 44.2275 25.6712L43.3015 26.5971C42.6607 25.9055 41.878 25.3605 41.0071 24.9993C40.1361 24.6381 39.1974 24.4694 38.2552 24.5046C34.4404 24.5046 31.7737 27.4119 31.7737 31.2499C31.7737 34.9953 34.4265 38.0462 38.2552 38.0462C39.2635 38.0504 40.2582 37.8141 41.1568 37.3567C42.0554 36.8994 42.8319 36.2343 43.4219 35.4166L44.5145 36.2777C43.8161 37.285 42.8788 38.1033 41.7863 38.6592C40.6939 39.2151 39.4806 39.4912 38.2552 39.4629C33.5005 39.4675 30.2413 35.7684 30.2413 31.2545Z" fill="#FB5729"/>
<path d="M47.9913 23.3704H49.5237V30.5093H59.4589V23.3704H60.9728V39.1898H59.4589V31.9074H49.5237V39.1898H47.9913V23.3704Z" fill="#FB5729"/>
<path d="M29.4583 17.5648H31.1852L23.287 1.625H22.7315L14.8333 17.5648H16.5602L18.3287 13.9352H27.6898L29.4583 17.5648ZM19.0092 12.5371L21.5463 7.32871C22.3055 5.76852 22.75 4.85648 23.0092 4.14816C23.2685 4.85648 23.7084 5.7639 24.4629 7.31019L27.0092 12.5371H19.0092Z" fill="#FB5729"/>
<path d="M5.61632 44.5925H7.1441V58.912H14.7181V60.3009H5.61632V44.5925Z" fill="#FB5729"/>
<path d="M31.5966 60.2592V60.3056H30.0041L28.3327 56.6944H19.7494L18.0874 60.2962H16.4948V60.2592L23.7911 44.4861H24.3004L31.5966 60.2592ZM23.1708 49.2685L20.393 55.3194H27.717L24.9392 49.2685C24.5349 48.3425 24.2417 47.6419 24.0596 47.1666C23.8652 47.6389 23.5689 48.3364 23.1708 49.2592V49.2685Z" fill="#FB5729"/>
<path d="M43.7229 53.5555C44.1729 54.2401 44.4205 55.0379 44.4368 55.857C44.4532 56.6761 44.2378 57.4831 43.8154 58.1852C43.4006 58.8504 42.8092 59.3873 42.107 59.7361C41.3461 60.1116 40.5065 60.3005 39.658 60.2871H33.3802V44.5926H39.246C40.0309 44.5841 40.8068 44.7618 41.5099 45.1111C42.1749 45.4383 42.7406 45.9368 43.1487 46.5555C43.5502 47.1822 43.758 47.9133 43.746 48.6574C43.7578 49.3379 43.5833 50.0088 43.2413 50.5972C42.9018 51.169 42.4243 51.6465 41.8525 51.9861C42.6142 52.3178 43.2638 52.8629 43.7229 53.5555ZM34.9265 51.4305H39.2228C40.0266 51.472 40.8171 51.2129 41.4404 50.7037C41.7152 50.4416 41.9295 50.1227 42.0686 49.7693C42.2077 49.416 42.2683 49.0365 42.246 48.6574C42.2611 48.2879 42.1909 47.9198 42.0407 47.5817C41.8906 47.2438 41.6645 46.9448 41.3802 46.7083C40.7582 46.206 39.9754 45.9462 39.1765 45.9768H34.9265V51.4305ZM42.0053 58.0787C42.2984 57.7909 42.5318 57.4481 42.6922 57.0699C42.8525 56.6917 42.9366 56.2856 42.9397 55.8748C42.9426 55.464 42.8645 55.0567 42.7097 54.6761C42.5549 54.2956 42.3265 53.9495 42.0376 53.6574C41.407 53.0828 40.5752 52.78 39.7228 52.8148H34.9034V58.912H39.5885C40.4629 58.9462 41.318 58.6485 41.9821 58.0787H42.0053Z" fill="#FB5729"/>
</g>
</g>
<defs>
<clipPath id="clip0_92_426">
<rect width="64" height="64" fill="white"/>
</clipPath>
</defs>
</svg>
