<svg width="186" height="56" viewBox="0 0 186 56" fill="none" xmlns="http://www.w3.org/2000/svg">
<mask id="mask0_92_538" style="mask-type:luminance" maskUnits="userSpaceOnUse" x="0" y="0" width="186" height="56">
<path d="M185.149 0H0V56H185.149V0Z" fill="white"/>
</mask>
<g mask="url(#mask0_92_538)">
<path fill-rule="evenodd" clip-rule="evenodd" d="M71.2777 11.2479C73.3865 11.2203 75.4931 11.2479 77.5991 11.2353C77.5991 12.9685 77.6169 14.7042 77.5991 16.4374C75.4931 16.4374 73.3865 16.4374 71.2805 16.4374C71.3029 14.7042 71.3052 12.971 71.2805 11.2379L71.2777 11.2479ZM97.9689 11.2479C100.068 11.2479 102.166 11.2479 104.263 11.2479C104.228 19.9889 104.263 28.7324 104.263 37.4734C104.233 39.2767 104.478 41.2478 103.482 42.8557C102.77 43.9778 101.376 44.3585 100.121 44.3585C96.7015 44.3585 93.2829 44.381 89.8642 44.3585C87.4796 44.346 84.9827 43.537 83.4052 41.6736C81.4637 39.4194 80.9329 36.3613 80.7501 33.4936C80.6073 30.0397 80.5598 26.3105 82.4233 23.2573C83.9458 20.6601 86.9465 19.25 89.8843 19.1248C92.5818 19.0246 95.2817 19.1073 97.9815 19.0772C97.9701 16.4691 97.9701 13.8618 97.9815 11.2554L97.9689 11.2479ZM88.6094 25.4388C87.5352 26.6686 87.3323 28.3667 87.2045 29.932C87.1391 31.8606 87.1294 33.8092 87.455 35.7176C87.5765 36.6402 88.0104 37.4933 88.6845 38.1346C89.7914 39.199 91.4245 39.3118 92.877 39.3017C94.4826 39.2716 96.0979 39.3969 97.6938 39.1514C98.0595 38.0469 97.9443 36.8748 97.9666 35.7327C97.9666 31.8506 97.9666 27.9693 97.9666 24.0889C95.9328 24.1064 93.8991 24.0764 91.8682 24.1139C90.6759 24.164 89.4085 24.5047 88.5997 25.4388H88.6094ZM71.288 19.0672C73.394 19.0546 75.5006 19.0672 77.6066 19.0672C77.6066 27.4951 77.622 35.9255 77.6066 44.3634C75.4954 44.3634 73.3865 44.3484 71.2754 44.3634C71.2754 35.933 71.2926 27.5026 71.2754 19.0672H71.288ZM109.969 21.7897C112.35 19.3827 115.952 18.9946 119.165 18.9595C122.159 18.982 125.38 18.9595 128.021 20.5699C130.246 21.8773 131.428 24.4345 131.636 26.9366C131.776 28.7649 131.949 30.8087 130.884 32.4091C130.133 33.5387 128.743 33.9694 127.456 33.972C122.902 33.972 118.351 33.987 113.801 33.972C113.993 35.4096 113.843 37.0826 114.905 38.2297C115.95 39.3092 117.56 39.2316 118.945 39.3117C122.953 39.3117 126.977 39.3117 130.992 39.3117C130.977 40.9948 130.992 42.6754 130.992 44.3585C126.805 44.3484 122.616 44.3484 118.426 44.3585C116.378 44.3309 114.239 44.4436 112.313 43.6221C110.197 42.7731 108.636 40.832 108.03 38.6605C107.133 35.6049 107.356 32.3765 107.386 29.2308C107.489 26.5935 107.98 23.7057 109.981 21.8022L109.969 21.7897ZM114.727 25.5465C113.908 26.4532 113.868 27.733 113.786 28.8851C117.543 28.8451 121.299 28.9778 125.056 28.8175C125.62 27.2196 124.716 25.3261 123.21 24.6123C121.708 23.9461 120.004 23.9586 118.386 24.0312C117.047 24.0864 115.594 24.4445 114.722 25.534L114.727 25.5465ZM144.607 19.0597C148.316 19.0321 152.023 19.0597 155.732 19.0447C155.732 20.7252 155.747 22.4033 155.732 24.0813C152.727 24.0813 149.721 24.0813 146.728 24.0813C145.161 24.1139 143.442 24.3844 142.278 25.534C141.276 26.4557 140.875 27.8357 140.775 29.1581C140.627 31.4298 140.542 33.744 141.025 35.9831C141.135 36.5143 141.359 37.0154 141.68 37.4521C142.002 37.8887 142.414 38.2506 142.889 38.5127C144.199 39.2641 145.752 39.2115 147.209 39.2792C150.235 39.3017 153.262 39.2641 156.288 39.2967C156.248 40.9748 156.288 42.6553 156.273 44.3334H144.181C141.752 44.3634 139.222 43.7123 137.359 42.0943C135.162 40.2234 134.308 37.273 134.203 34.4804C134.1 31.1267 133.953 27.6078 135.3 24.4621C136.01 22.7389 137.281 21.3058 138.906 20.3946C140.629 19.4279 142.633 19.0621 144.594 19.0647L144.607 19.0597ZM167.792 18.9545C170.191 18.7345 172.605 18.7111 175.007 18.8843C177.983 19.1498 181.222 20.1366 182.972 22.7364C185.116 25.9272 185.279 29.9646 185.078 33.6789C184.828 36.6594 184.059 39.8753 181.758 41.9591C179.308 44.098 175.889 44.5413 172.756 44.5814C169.365 44.6339 165.725 44.5664 162.738 42.7355C160.734 41.5433 159.499 39.4094 158.913 37.2054C158.224 34.7008 158.235 32.0785 158.39 29.5113C158.64 26.621 159.404 23.573 161.538 21.4816C163.241 19.9237 165.545 19.255 167.787 18.9545H167.792ZM168.871 24.1064C167.491 24.3994 166.166 25.2259 165.585 26.5509C164.681 28.5545 164.784 30.8087 164.804 32.9526C164.847 34.831 165.23 36.9324 166.753 38.1947C168.633 39.7325 171.261 39.6298 173.533 39.447C175.759 39.2867 177.848 37.6938 178.346 35.4672C178.804 33.3208 178.744 31.0917 178.559 28.9177C178.422 27.0317 177.374 25.1408 175.554 24.4245C173.437 23.6606 171.078 23.7007 168.879 24.1189L168.871 24.1064Z" fill="white"/>
<path fill-rule="evenodd" clip-rule="evenodd" d="M43.6449 33.5936C44.0582 32.5918 44.3011 31.5299 44.7569 30.5431C45.3455 34.0845 45.3656 37.7838 44.256 41.2327C42.2649 48.1353 36.3841 53.7155 29.3988 55.381C26.4798 56.1179 23.4355 56.2118 20.4765 55.6565C17.5175 55.1011 14.7144 53.9097 12.2612 52.1645C9.80795 50.4194 7.76306 48.1622 6.26788 45.5491C4.77273 42.9359 3.863 40.0292 3.60162 37.0299C4.5133 37.9767 5.172 39.1338 6.07866 40.0881C8.8943 43.1812 12.5127 45.433 16.5315 46.5927C20.5503 47.7525 24.812 47.7749 28.8428 46.6576C35.4449 44.8944 41.0226 39.8827 43.6449 33.5936Z" fill="#E77C06"/>
<path fill-rule="evenodd" clip-rule="evenodd" d="M23.6232 1.56493C26.1795 0.511684 28.9199 -0.0221602 31.6845 -0.00548024C34.4492 0.0111997 37.1829 0.578068 39.7262 1.66208C42.2696 2.7461 44.5717 4.32557 46.4984 6.30838C48.4251 8.29125 49.9377 10.6378 50.9483 13.2112C51.7522 15.1723 52.0753 17.2837 52.3934 19.365C49.7385 14.8067 45.333 11.3503 40.3588 9.62971C35.2568 7.91608 29.7121 8.06965 24.7127 10.063C18.0656 12.6452 12.9562 18.6136 11.218 25.5088C10.5193 21.7869 10.5769 17.8673 11.8216 14.2632C12.7569 11.4208 14.2958 8.81437 16.3328 6.62256C18.3699 4.43078 20.8569 2.70546 23.6232 1.56493Z" fill="#E77C06"/>
<path fill-rule="evenodd" clip-rule="evenodd" d="M33.5939 12.3552C32.5921 11.9419 31.5301 11.699 30.5433 11.2432C34.0848 10.6546 37.7841 10.6345 41.2329 11.7441C48.1355 13.7352 53.7157 19.616 55.3812 26.6013C56.1181 29.5204 56.2121 32.5646 55.6567 35.5236C55.1013 38.4826 53.9099 41.2856 52.1648 43.7389C50.4196 46.1921 48.1624 48.2371 45.5493 49.7322C42.9362 51.2274 40.0295 52.1371 37.0302 52.3985C37.9769 51.4868 39.1341 50.8281 40.0883 49.9215C43.1311 47.1386 45.3625 43.5829 46.5451 39.6326C49.8562 28.6375 44.2359 16.7833 33.5939 12.3552Z" fill="white"/>
<path fill-rule="evenodd" clip-rule="evenodd" d="M1.56549 32.3766C0.512513 29.8197 -0.0208506 27.0788 -0.00349596 24.3137C0.0138587 21.5485 0.581586 18.8144 1.66657 16.271C2.75156 13.7276 4.33209 11.4256 6.31599 9.49934C8.29989 7.57311 10.6475 6.06113 13.2218 5.05159C15.1829 4.24762 17.2943 3.92453 19.3756 3.60645C14.8072 6.2613 11.3434 10.6769 9.63027 15.641C8.63437 18.5938 8.25977 21.7206 8.53004 24.8251C8.80031 27.9296 9.7096 30.9447 11.2008 33.681C12.6919 36.4172 14.7328 38.8157 17.1951 40.7256C19.6574 42.6355 22.4881 44.0156 25.5093 44.7793C21.7875 45.4781 17.8678 45.4204 14.2637 44.1757C11.4216 43.2407 8.81533 41.7022 6.62358 39.6656C4.43177 37.629 2.70631 35.1425 1.56549 32.3766Z" fill="white"/>
</g>
</svg>
